<svg preserveAspectRatio="none" width="100%" height="100%" overflow="visible" style="display: block;" viewBox="0 0 25.5 25.5" fill="none" xmlns="http://www.w3.org/2000/svg">
<g id="elements">
<path id="Ellipse 1381" d="M24.75 4.75C24.75 6.95914 22.9591 8.75 20.75 8.75C18.5409 8.75 16.75 6.95914 16.75 4.75C16.75 2.54086 18.5409 0.75 20.75 0.75C22.9591 0.75 24.75 2.54086 24.75 4.75Z" stroke="var(--stroke-0, #8B6B3A)" stroke-width="1.5"/>
<path id="Ellipse 1382" d="M24.75 20.75C24.75 22.9591 22.9591 24.75 20.75 24.75C18.5409 24.75 16.75 22.9591 16.75 20.75C16.75 18.5409 18.5409 16.75 20.75 16.75C22.9591 16.75 24.75 18.5409 24.75 20.75Z" stroke="var(--stroke-0, #8B6B3A)" stroke-width="1.5"/>
<path id="Vector 6758" d="M16.75 7.41667L0.750005 22.0833" stroke="var(--stroke-0, #8B6B3A)" stroke-width="1.5" stroke-linecap="round" stroke-linejoin="round"/>
<path id="Vector 6759" d="M16.7503 18.0833L11.4167 12.75" stroke="var(--stroke-0, #8B6B3A)" stroke-width="1.5" stroke-linecap="round" stroke-linejoin="round"/>
<path id="Vector 6760" d="M0.750005 3.41667L8.08334 10.0832" stroke="var(--stroke-0, #8B6B3A)" stroke-width="1.5" stroke-linecap="round" stroke-linejoin="round"/>
</g>
</svg>
